<?xml version="1.0" encoding="utf-8"?>
<!-- Generator: Adobe Illustrator 15.1.0, SVG Export Plug-In . SVG Version: 6.00 Build 0)  -->
<!DOCTYPE svg PUBLIC "-//W3C//DTD SVG 1.1//EN" "http://www.w3.org/Graphics/SVG/1.1/DTD/svg11.dtd">
<svg version="1.1" id="Layer_1" xmlns="http://www.w3.org/2000/svg" xmlns:xlink="http://www.w3.org/1999/xlink" x="0px" y="0px"
	 width="460.439px" height="82.417px" viewBox="0 0 460.439 82.417" enable-background="new 0 0 460.439 82.417"
	 xml:space="preserve">
<g>
	<g>
		<path fill="#FFFFFF" d="M43.884,12.993h4.067L35.209,25.627l13.175,14.507h-4.176L33.085,27.679l-0.756,0.756v11.699h-3.023
			V12.993h3.023v11.626L43.884,12.993z"/>
		<path fill="#FFFFFF" d="M54.901,12.993h14.074v2.808H57.925v8.062h10.727v2.808H57.925v10.655h11.051v2.808H54.901V12.993z"/>
		<path fill="#FFFFFF" d="M77.905,11.841l21.166,22.174V12.993h3.023v28.364L80.93,19.22v20.914h-3.024V11.841z"/>
		<path fill="#FFFFFF" d="M111.529,11.841l21.165,22.174V12.993h3.023v28.364L114.553,19.22v20.914h-3.023V11.841z"/>
		<path fill="#FFFFFF" d="M144.974,12.993h14.074v2.808h-11.051v8.062h10.727v2.808h-10.727v10.655h11.051v2.808h-14.074V12.993z"/>
		<path fill="#FFFFFF" d="M174.996,40.134h-3.023V15.801h-6.552v-2.808h16.198v2.808h-6.623V40.134z"/>
		<path fill="#FFFFFF" d="M205.378,24.008V12.993h3.024v27.141h-3.024V26.815h-13.894v13.318h-3.023V12.993h3.023v11.015H205.378z"
			/>
		<path fill="#FFFFFF" d="M236.376,32.431l-3.275,7.703h-3.312l12.527-28.437l12.202,28.437h-3.348l-3.203-7.703H236.376z
			 M242.243,18.752L237.6,29.623h9.18L242.243,18.752z"/>
		<path fill="#FFFFFF" d="M261.252,11.841l21.166,22.174V12.993h3.023v28.364L264.276,19.22v20.914h-3.024V11.841z"/>
		<path fill="#FFFFFF" d="M301.896,40.134h-3.023V15.801h-6.552v-2.808h16.198v2.808h-6.623V40.134z"/>
		<path fill="#FFFFFF" d="M332.277,24.008V12.993h3.024v27.141h-3.024V26.815h-13.894v13.318h-3.023V12.993h3.023v11.015H332.277z"
			/>
		<path fill="#FFFFFF" d="M371.444,26.6c0,7.811-6.408,14.002-14.146,14.002S343.151,34.41,343.151,26.6
			c0-7.775,6.408-14.074,14.146-14.074S371.444,18.824,371.444,26.6z M346.175,26.563c0,6.119,4.967,11.23,11.123,11.23
			c6.154,0,11.123-5.111,11.123-11.23c0-6.155-4.896-11.23-11.123-11.23S346.175,20.408,346.175,26.563z"/>
		<path fill="#FFFFFF" d="M379.331,11.841l21.166,22.174V12.993h3.023v28.364L382.354,19.22v20.914h-3.023V11.841z"/>
		<path fill="#FFFFFF" d="M410.329,12.993h3.49l6.912,12.095l6.91-12.095h3.492l-8.891,15.478v11.663h-3.023V28.471L410.329,12.993z
			"/>
	</g>
	<g>
		<path fill="#FFFFFF" d="M115.354,66.688l3.871-10.354h1.639l-5.51,14.387l-5.51-14.387h1.639L115.354,66.688z"/>
		<path fill="#FFFFFF" d="M125.685,69.91h-1.513V56.334h1.513V69.91z"/>
		<path fill="#FFFFFF" d="M136.396,58.981c-0.54-0.937-1.188-1.477-2.341-1.477c-1.207,0-2.25,0.864-2.25,2.106
			c0,1.17,1.206,1.711,2.125,2.125l0.9,0.396c1.764,0.774,3.259,1.656,3.259,3.817c0,2.377-1.909,4.195-4.267,4.195
			c-2.179,0-3.799-1.404-4.231-3.511l1.477-0.414c0.198,1.386,1.26,2.521,2.719,2.521s2.791-1.116,2.791-2.647
			c0-1.584-1.242-2.124-2.502-2.7l-0.828-0.36c-1.584-0.72-2.953-1.53-2.953-3.475c0-2.107,1.783-3.457,3.799-3.457
			c1.512,0,2.791,0.773,3.511,2.106L136.396,58.981z"/>
		<path fill="#FFFFFF" d="M143.576,64.419c0,1.008-0.036,2.16,0.594,3.024c0.594,0.828,1.747,1.297,2.737,1.297
			c0.972,0,2.035-0.45,2.665-1.207c0.72-0.864,0.666-2.052,0.666-3.114v-8.085h1.512v8.499c0,1.477-0.108,2.646-1.188,3.763
			c-0.937,1.009-2.287,1.549-3.655,1.549c-1.278,0-2.593-0.486-3.511-1.387c-1.188-1.134-1.332-2.377-1.332-3.925v-8.499h1.512
			V64.419z"/>
		<path fill="#FFFFFF" d="M158.264,66.058l-1.638,3.853h-1.657l6.266-14.224l6.104,14.224h-1.674l-1.603-3.853H158.264z
			 M161.199,59.215l-2.323,5.438h4.591L161.199,59.215z"/>
		<path fill="#FFFFFF" d="M172.124,68.506h3.745v1.404h-5.257V56.334h1.512V68.506z"/>
		<path fill="#A7A9AC" d="M188.975,58.927c-0.972-0.864-2.305-1.332-3.583-1.332c-3.043,0-5.366,2.539-5.366,5.546
			c0,2.971,2.305,5.51,5.33,5.51c1.332,0,2.61-0.505,3.619-1.405v1.999c-1.044,0.612-2.376,0.954-3.565,0.954
			c-3.871,0-7.076-3.079-7.076-7.004c0-4.016,3.223-7.148,7.22-7.148c1.188,0,2.395,0.288,3.421,0.919V58.927z"/>
		<path fill="#A7A9AC" d="M206.058,63.122c0,4.033-3.187,7.076-7.112,7.076s-7.112-3.043-7.112-7.076
			c0-3.889,3.223-7.076,7.112-7.076S206.058,59.233,206.058,63.122z M204.365,63.122c0-2.988-2.233-5.491-5.42-5.491
			s-5.419,2.503-5.419,5.491c0,3.098,2.485,5.492,5.419,5.492C201.88,68.614,204.365,66.22,204.365,63.122z"/>
		<path fill="#A7A9AC" d="M211.796,60.943h-0.036l-1.584,8.967h-1.747l2.773-14.152l4.664,10.695l4.663-10.695l2.773,14.152h-1.747
			l-1.584-8.967h-0.036l-4.069,9.255L211.796,60.943z"/>
		<path fill="#A7A9AC" d="M228.914,60.943h-0.036l-1.584,8.967h-1.747l2.773-14.152l4.663,10.695l4.663-10.695l2.773,14.152h-1.747
			l-1.584-8.967h-0.036l-4.069,9.255L228.914,60.943z"/>
		<path fill="#A7A9AC" d="M245.186,56.334v8.013c0,2.215,0.666,4.268,3.276,4.268c2.611,0,3.277-2.053,3.277-4.268v-8.013h1.692
			v8.589c0,2.989-1.854,5.275-4.97,5.275c-3.114,0-4.969-2.286-4.969-5.275v-8.589H245.186z"/>
		<path fill="#A7A9AC" d="M257.406,55.687l10.191,10.677V56.334h1.692v14.135l-10.191-10.678V69.91h-1.692V55.687z"/>
		<path fill="#A7A9AC" d="M275.137,69.91h-1.692V56.334h1.692V69.91z"/>
		<path fill="#A7A9AC" d="M289.358,58.927c-0.972-0.864-2.305-1.332-3.583-1.332c-3.043,0-5.365,2.539-5.365,5.546
			c0,2.971,2.305,5.51,5.33,5.51c1.332,0,2.61-0.505,3.618-1.405v1.999c-1.044,0.612-2.376,0.954-3.564,0.954
			c-3.871,0-7.076-3.079-7.076-7.004c0-4.016,3.223-7.148,7.22-7.148c1.188,0,2.396,0.288,3.421,0.919V58.927z"/>
		<path fill="#A7A9AC" d="M295.099,66.508l-1.549,3.402h-1.818l6.482-14.152l6.481,14.152h-1.818l-1.549-3.402H295.099z
			 M298.214,59.467l-2.413,5.492h4.825L298.214,59.467z"/>
		<path fill="#A7A9AC" d="M309.841,69.91h-1.692V57.883h-3.223v-1.549h8.138v1.549h-3.223V69.91z"/>
		<path fill="#A7A9AC" d="M317.833,69.91h-1.693V56.334h1.693V69.91z"/>
		<path fill="#A7A9AC" d="M335.439,63.122c0,4.033-3.187,7.076-7.112,7.076c-3.925,0-7.111-3.043-7.111-7.076
			c0-3.889,3.223-7.076,7.111-7.076C332.217,56.046,335.439,59.233,335.439,63.122z M333.747,63.122c0-2.988-2.232-5.491-5.42-5.491
			c-3.187,0-5.419,2.503-5.419,5.491c0,3.098,2.484,5.492,5.419,5.492C331.263,68.614,333.747,66.22,333.747,63.122z"/>
		<path fill="#A7A9AC" d="M338.712,55.687l10.19,10.677V56.334h1.693v14.135l-10.191-10.678V69.91h-1.692V55.687z"/>
	</g>
</g>
</svg>
