<?xml version="1.0" encoding="utf-8"?>
<!-- Generator: Adobe Illustrator 15.1.0, SVG Export Plug-In . SVG Version: 6.00 Build 0)  -->
<!DOCTYPE svg PUBLIC "-//W3C//DTD SVG 1.1//EN" "http://www.w3.org/Graphics/SVG/1.1/DTD/svg11.dtd">
<svg version="1.1" id="Layer_1" xmlns="http://www.w3.org/2000/svg" xmlns:xlink="http://www.w3.org/1999/xlink" x="0px" y="0px"
	 width="612px" height="792px" viewBox="0 0 612 792" enable-background="new 0 0 612 792" xml:space="preserve">
<g>
	<path fill="#FFFFFF" d="M121.499,301.608h4.067l-12.742,12.634l13.175,14.506h-4.176L110.7,316.294l-0.756,0.756v11.699h-3.023
		v-27.141h3.023v11.626L121.499,301.608z"/>
	<path fill="#FFFFFF" d="M132.517,301.608h14.074v2.808H135.54v8.063h10.727v2.808H135.54v10.655h11.051v2.808h-14.074V301.608z"/>
	<path fill="#FFFFFF" d="M155.521,300.457l21.166,22.173v-21.021h3.023v28.364l-21.165-22.137v20.914h-3.024V300.457z"/>
	<path fill="#FFFFFF" d="M189.145,300.457l21.165,22.173v-21.021h3.023v28.364l-21.165-22.137v20.914h-3.023V300.457z"/>
	<path fill="#FFFFFF" d="M222.589,301.608h14.074v2.808h-11.051v8.063h10.727v2.808h-10.727v10.655h11.051v2.808h-14.074V301.608z"
		/>
	<path fill="#FFFFFF" d="M252.611,328.749h-3.023v-24.333h-6.552v-2.808h16.198v2.808h-6.623V328.749z"/>
	<path fill="#FFFFFF" d="M282.993,312.623v-11.015h3.024v27.141h-3.024v-13.318H269.1v13.318h-3.023v-27.141h3.023v11.015H282.993z"
		/>
	<path fill="#FFFFFF" d="M313.99,321.046l-3.275,7.703h-3.312l12.526-28.437l12.202,28.437h-3.348l-3.203-7.703H313.99z
		 M319.857,307.368l-4.644,10.871h9.18L319.857,307.368z"/>
	<path fill="#FFFFFF" d="M338.866,300.457l21.166,22.173v-21.021h3.023v28.364l-21.165-22.137v20.914h-3.024V300.457z"/>
	<path fill="#FFFFFF" d="M379.51,328.749h-3.023v-24.333h-6.552v-2.808h16.198v2.808h-6.623V328.749z"/>
	<path fill="#FFFFFF" d="M409.892,312.623v-11.015h3.024v27.141h-3.024v-13.318h-13.894v13.318h-3.023v-27.141h3.023v11.015H409.892
		z"/>
	<path fill="#FFFFFF" d="M449.059,315.215c0,7.811-6.408,14.002-14.146,14.002s-14.146-6.191-14.146-14.002
		c0-7.775,6.408-14.074,14.146-14.074S449.059,307.439,449.059,315.215z M423.789,315.179c0,6.119,4.967,11.23,11.123,11.23
		c6.154,0,11.123-5.111,11.123-11.23c0-6.155-4.896-11.23-11.123-11.23S423.789,309.023,423.789,315.179z"/>
	<path fill="#FFFFFF" d="M456.945,300.457l21.166,22.173v-21.021h3.023v28.364l-21.166-22.137v20.914h-3.023V300.457z"/>
	<path fill="#FFFFFF" d="M487.943,301.608h3.49l6.912,12.095l6.91-12.095h3.492l-8.891,15.478v11.663h-3.023v-11.663
		L487.943,301.608z"/>
</g>
<g>
	<path fill="#FFFFFF" d="M191.567,355.303l3.871-10.353h1.639l-5.51,14.386l-5.51-14.386h1.639L191.567,355.303z"/>
	<path fill="#FFFFFF" d="M201.898,358.526h-1.513V344.95h1.513V358.526z"/>
	<path fill="#FFFFFF" d="M212.609,347.597c-0.54-0.937-1.188-1.477-2.341-1.477c-1.207,0-2.25,0.864-2.25,2.107
		c0,1.17,1.206,1.71,2.125,2.125l0.9,0.396c1.764,0.774,3.259,1.656,3.259,3.817c0,2.376-1.909,4.195-4.267,4.195
		c-2.179,0-3.799-1.404-4.231-3.511l1.477-0.414c0.198,1.386,1.26,2.521,2.719,2.521s2.791-1.116,2.791-2.647
		c0-1.584-1.242-2.125-2.502-2.701l-0.828-0.36c-1.584-0.72-2.953-1.531-2.953-3.475c0-2.107,1.783-3.457,3.799-3.457
		c1.512,0,2.791,0.774,3.511,2.106L212.609,347.597z"/>
	<path fill="#FFFFFF" d="M219.79,353.034c0,1.008-0.036,2.161,0.594,3.025c0.594,0.828,1.747,1.296,2.737,1.296
		c0.972,0,2.035-0.45,2.665-1.207c0.72-0.864,0.666-2.052,0.666-3.115v-8.084h1.512v8.499c0,1.477-0.108,2.647-1.188,3.763
		c-0.937,1.008-2.287,1.548-3.655,1.548c-1.278,0-2.593-0.486-3.511-1.386c-1.188-1.134-1.332-2.377-1.332-3.925v-8.499h1.512
		V353.034z"/>
	<path fill="#FFFFFF" d="M234.478,354.673l-1.638,3.853h-1.657l6.266-14.224l6.104,14.224h-1.674l-1.603-3.853H234.478z
		 M237.413,347.831l-2.323,5.438h4.591L237.413,347.831z"/>
	<path fill="#FFFFFF" d="M248.337,357.122h3.745v1.404h-5.257V344.95h1.512V357.122z"/>
	<path fill="#A7A9AC" d="M265.188,347.542c-0.972-0.864-2.305-1.332-3.583-1.332c-3.043,0-5.366,2.539-5.366,5.545
		c0,2.971,2.305,5.51,5.33,5.51c1.332,0,2.61-0.504,3.619-1.405v1.999c-1.044,0.612-2.376,0.954-3.565,0.954
		c-3.871,0-7.076-3.079-7.076-7.004c0-4.016,3.223-7.148,7.22-7.148c1.188,0,2.395,0.288,3.421,0.918V347.542z"/>
	<path fill="#A7A9AC" d="M282.271,351.738c0,4.033-3.187,7.076-7.112,7.076s-7.112-3.043-7.112-7.076
		c0-3.889,3.223-7.076,7.112-7.076S282.271,347.849,282.271,351.738z M280.579,351.738c0-2.989-2.233-5.492-5.42-5.492
		s-5.419,2.503-5.419,5.492c0,3.097,2.485,5.492,5.419,5.492C278.094,357.229,280.579,354.835,280.579,351.738z"/>
	<path fill="#A7A9AC" d="M288.009,349.559h-0.036l-1.584,8.967h-1.747l2.773-14.152l4.664,10.695l4.663-10.695l2.773,14.152h-1.747
		l-1.584-8.967h-0.036l-4.069,9.255L288.009,349.559z"/>
	<path fill="#A7A9AC" d="M305.127,349.559h-0.036l-1.584,8.967h-1.747l2.773-14.152l4.663,10.695l4.663-10.695l2.773,14.152h-1.747
		l-1.584-8.967h-0.036l-4.069,9.255L305.127,349.559z"/>
	<path fill="#A7A9AC" d="M321.399,344.95v8.013c0,2.214,0.666,4.267,3.276,4.267c2.611,0,3.277-2.053,3.277-4.267v-8.013h1.692
		v8.589c0,2.989-1.854,5.275-4.97,5.275c-3.114,0-4.969-2.287-4.969-5.275v-8.589H321.399z"/>
	<path fill="#A7A9AC" d="M333.62,344.302l10.191,10.677V344.95h1.692v14.134l-10.191-10.677v10.119h-1.692V344.302z"/>
	<path fill="#A7A9AC" d="M351.351,358.526h-1.692V344.95h1.692V358.526z"/>
	<path fill="#A7A9AC" d="M365.572,347.542c-0.972-0.864-2.305-1.332-3.583-1.332c-3.043,0-5.365,2.539-5.365,5.545
		c0,2.971,2.305,5.51,5.33,5.51c1.332,0,2.61-0.504,3.618-1.405v1.999c-1.044,0.612-2.376,0.954-3.564,0.954
		c-3.871,0-7.076-3.079-7.076-7.004c0-4.016,3.223-7.148,7.22-7.148c1.188,0,2.396,0.288,3.421,0.918V347.542z"/>
	<path fill="#A7A9AC" d="M371.312,355.123l-1.549,3.403h-1.818l6.482-14.152l6.481,14.152h-1.818l-1.549-3.403H371.312z
		 M374.428,348.083l-2.413,5.492h4.825L374.428,348.083z"/>
	<path fill="#A7A9AC" d="M386.055,358.526h-1.692v-12.027h-3.223v-1.549h8.138v1.549h-3.223V358.526z"/>
	<path fill="#A7A9AC" d="M394.047,358.526h-1.693V344.95h1.693V358.526z"/>
	<path fill="#A7A9AC" d="M411.653,351.738c0,4.033-3.187,7.076-7.112,7.076c-3.925,0-7.111-3.043-7.111-7.076
		c0-3.889,3.223-7.076,7.111-7.076C408.431,344.662,411.653,347.849,411.653,351.738z M409.961,351.738
		c0-2.989-2.232-5.492-5.42-5.492c-3.187,0-5.419,2.503-5.419,5.492c0,3.097,2.484,5.492,5.419,5.492
		C407.477,357.229,409.961,354.835,409.961,351.738z"/>
	<path fill="#A7A9AC" d="M414.926,344.302l10.19,10.677V344.95h1.693v14.134l-10.191-10.677v10.119h-1.692V344.302z"/>
</g>
</svg>
